<?xml version="1.0" encoding="UTF-8"?>
<svg id="Warstwa_2" data-name="Warstwa 2" xmlns="http://www.w3.org/2000/svg" viewBox="0 0 276.43 72">
  <defs>
    <style>
      .cls-1 {
        fill: #00a8ff;
      }

      .cls-2 {
        fill: #341694;
      }
    </style>
  </defs>
  <g id="Warstwa_1-2" data-name="Warstwa 1">
    <g>
      <polygon class="cls-1" points="252.47 72 276.43 36.07 252.48 0 230.35 0 254.44 36.07 230.35 72 252.47 72"/>
      <g>
        <polygon class="cls-2" points="24.08 27.22 10.15 27.22 10.15 9.77 0 9.77 0 52.52 10.15 52.52 10.15 37.25 24.08 37.25 24.08 52.52 34.23 52.52 34.23 9.77 24.08 9.77 24.08 27.22"/>
        <path class="cls-2" d="M66.94,41.21c-.3-.51-.54-.91-.75-1.25,4.2-3.2,6.7-8.27,6.7-13.67,0-9.39-7.13-16.47-16.58-16.47h-15.02v42.7h10.15v-9.2h5.16l5.68,9.2h11.54l-.45-.73c-3.67-5.97-5.4-8.86-6.43-10.58ZM51.44,19.86h4.65c3.73,0,6.66,2.95,6.66,6.71s-2.99,6.71-6.66,6.71h-4.65v-13.43Z"/>
        <path class="cls-2" d="M98.82,40.97c-1.29,1.93-3.53,3.13-5.85,3.13-3.86,0-6.99-3.24-6.99-7.21s3.2-7.38,6.99-7.38c2,0,4.1,1.06,5.48,2.78l.29.36,7.39-5.59-.3-.38c-3.11-3.95-7.9-6.31-12.8-6.31-8.99,0-16.3,7.41-16.3,16.53s7.31,16.47,16.3,16.47c5.21,0,10.14-2.53,13.2-6.77l.27-.38-7.4-5.66-.28.42Z"/>
        <path class="cls-2" d="M125.42,20.36c-8.99,0-16.3,7.39-16.3,16.47s7.31,16.47,16.3,16.47,16.36-7.39,16.36-16.47-7.34-16.47-16.36-16.47ZM125.42,43.66c-3.76,0-6.71-3.05-6.71-6.94s3.01-7.05,6.71-7.05,6.82,3.23,6.82,7.05-3,6.94-6.82,6.94Z"/>
        <path class="cls-2" d="M170.37,24.1c-2.16-2.36-5.51-3.74-9.22-3.74-7.04,0-14.91,7.07-14.91,16.53,0,10.31,7.58,16.47,14.91,16.47,3.83,0,7.1-1.37,9.34-3.9l.31,3.06h9.6V9.77h-10.04v14.33ZM163.6,44.32c-4.04,0-7.33-3.36-7.33-7.49s3.29-7.6,7.33-7.6,7.21,3.55,7.21,7.6-3.24,7.49-7.21,7.49Z"/>
        <path class="cls-2" d="M207.17,42.41c-.62.6-1.29,1.05-2.04,1.38-1.11.48-2.4.7-4.02.7-2.93,0-5.36-1.64-6.36-4.23h21.11v-3.37c0-6.67-4.69-16.53-14.74-16.53s-15.58,8.61-15.58,16.58,5.46,16.42,15.58,16.42c2.94,0,5.87-.88,8.33-2.15,1.17-.6,2.23-1.29,3.14-2.02l-5.41-6.78ZM201.11,28.67c2.5,0,4.76,1.86,5.53,3.73h-11.53c.88-1.9,3.11-3.73,6-3.73Z"/>
      </g>
    </g>
  </g>
</svg>