<?xml version="1.0" encoding="UTF-8"?>
<svg id="Warstwa_1" data-name="Warstwa 1" xmlns="http://www.w3.org/2000/svg" viewBox="0 0 1920 1080">
  <defs>
    <style>
      .cls-1 {
        fill-rule: evenodd;
      }

      .cls-1, .cls-2 {
        fill: #046c38;
      }
    </style>
  </defs>
  <polygon class="cls-2" points="704.35 649.63 704.35 719.6 747.93 719.6 747.93 707.51 717.75 707.51 717.75 649.63 704.35 649.63"/>
  <path class="cls-2" d="M803.44,690.42v-40.78h-13.39v40.78c0,18.39,11.99,29.78,31.08,29.78s30.68-11.39,30.68-29.78v-40.78h-13.39v40.78c0,11.19-6.7,17.79-17.29,17.79s-17.69-6.7-17.69-17.79"/>
  <path class="cls-2" d="M931.01,708.01h-16.99v-18.49h16.99c8.5-.1,13.59,3.4,13.59,9.1,0,6-5.1,9.49-13.59,9.39M931.01,678.22h-16.99v-16.99h16.99c6.9-.1,11.09,3,11.09,8.3s-4.2,8.69-11.09,8.69ZM931.71,649.63h-31.08v69.97h31.99c15.99,0,25.89-7.3,25.89-19.29,0-9.29-5.6-15.99-14.89-17.69,7.6-1.9,12.2-7.8,12.2-15.49,0-10.79-9.2-17.49-24.09-17.49Z"/>
  <polygon class="cls-2" points="1004.51 649.63 1004.51 719.6 1048.09 719.6 1048.09 707.51 1017.9 707.51 1017.9 649.63 1004.51 649.63"/>
  <rect class="cls-2" x="1091.6" y="649.63" width="13.39" height="69.97"/>
  <polygon class="cls-2" points="1155.2 649.63 1155.2 719.6 1168.29 719.6 1168.29 671.83 1204.28 719.6 1216.97 719.6 1216.97 649.63 1203.98 649.63 1203.98 697.51 1167.9 649.63 1155.2 649.63"/>
  <polygon class="cls-1" points="627.88 383.48 655.76 383.48 655.76 434.81 715.53 434.81 715.53 383.48 743.41 383.48 743.41 510.43 715.53 510.43 715.53 455.91 655.76 455.91 655.76 510.43 627.88 510.43 627.88 383.48"/>
  <polygon class="cls-1" points="835.07 383.46 926.74 383.46 926.74 404.56 862.95 404.56 862.95 434.99 905.41 434.99 905.41 454.41 862.95 454.41 862.95 489.32 926.74 489.32 926.74 510.41 835.07 510.41 835.07 383.46"/>
  <polygon class="cls-1" points="80.37 431.05 65.41 465.98 95.03 465.99 95.03 484.12 57.79 484.11 46.59 510.42 19.76 510.42 71.3 396.39 66.23 383.51 95.18 383.51 151.55 510.42 122.42 510.42 88.38 431.05 84.39 420.08 80.37 431.05"/>
  <path class="cls-1" d="M431.93,446.94c0-41.81,29.06-63.61,64.51-63.61,22.87,0,33.59,5.54,39.77,10.01v26.44c-7.42-10.9-19.37-16.26-35.86-16.26-25.97,0-42.48,14.65-42.48,42.35s16.1,44.49,42.48,44.49c15.66,0,28.44-5.01,35.86-14.65v23.05c-7.63,7.32-22.26,11.79-38.75,11.79-39.98,0-65.54-21.08-65.54-63.61"/>
  <path class="cls-1" d="M351.16,510.42h-33.37l-38.5-37.23v-27.4h1.8c17.75,0,30.78-7.47,30.78-22.17s-10.12-20.56-28.06-20.56h-12.72s0,107.36,0,107.36h-27.87v-126.95h40.75c33.4,0,56.21,10.47,56.21,37.71,0,21.26-15.02,35.68-38.21,40.33l49.19,48.91Z"/>
  <path class="cls-1" d="M1380.71,496.27c-3.32,3.24-6.84,6.08-10.55,8.51-3.72,2.44-7.64,4.47-11.75,6.09-4.09,1.62-8.4,2.83-12.91,3.65-4.5.81-9.18,1.22-14.02,1.22s-9.52-.41-14.02-1.22c-4.39-.79-8.6-1.97-12.6-3.53h-.01l-.3-.12c-4.11-1.62-8.03-3.66-11.75-6.09-3.71-2.43-7.23-5.27-10.55-8.51-3.32-3.25-6.23-6.69-8.73-10.34-2.49-3.64-4.58-7.5-6.24-11.56-1.67-4.06-2.92-8.31-3.75-12.75-.83-4.45-1.25-9.08-1.25-13.89s.42-9.44,1.25-13.89c.83-4.44,2.08-8.69,3.75-12.75,1.67-4.06,3.75-7.92,6.24-11.57,2.49-3.64,5.4-7.09,8.73-10.34,3.32-3.25,6.84-6.09,10.55-8.51,3.72-2.44,7.64-4.47,11.75-6.09,4.09-1.61,8.4-2.84,12.92-3.65,4.51-.81,9.18-1.22,14.02-1.22s9.52.41,14.02,1.22c4.51.81,8.82,2.03,12.91,3.65,4.11,1.62,8.03,3.65,11.75,6.09,3.71,2.43,7.23,5.27,10.55,8.51,3.32,3.24,6.23,6.69,8.73,10.34,2.49,3.65,4.58,7.5,6.24,11.57,1.67,4.06,2.92,8.31,3.75,12.76.83,4.44,1.25,9.07,1.25,13.88s-.42,9.44-1.25,13.88c-.83,4.44-2.08,8.69-3.75,12.75-1.67,4.06-3.75,7.92-6.24,11.57-2.5,3.65-5.41,7.1-8.73,10.35M1361.84,416.57c-2.07-2.14-4.25-4.02-6.54-5.62h0c-2.3-1.6-4.71-2.94-7.21-3.99-2.51-1.06-5.15-1.85-7.92-2.39-2.76-.53-5.66-.8-8.68-.8-6.02,0-11.56,1.06-16.6,3.19-5.05,2.13-9.64,5.33-13.76,9.61-2.06,2.14-3.88,4.4-5.44,6.78-1.56,2.38-2.85,4.85-3.87,7.41-1.03,2.58-1.8,5.29-2.32,8.12-.51,2.81-.77,5.76-.77,8.85s.26,6.03.77,8.84c.52,2.83,1.29,5.54,2.32,8.12,1.02,2.56,2.31,5.04,3.87,7.41,1.56,2.38,3.37,4.64,5.44,6.78,2.06,2.13,4.24,4,6.55,5.61h0c2.29,1.6,4.7,2.94,7.21,3.99,2.5,1.06,5.15,1.85,7.92,2.39,2.76.53,5.66.8,8.68.8h.42c2.87-.02,5.62-.29,8.25-.8,2.78-.53,5.42-1.33,7.93-2.39,2.5-1.05,4.91-2.39,7.21-3.99h0c2.29-1.59,4.47-3.47,6.54-5.61,2.06-2.14,3.88-4.4,5.43-6.77,1.56-2.38,2.85-4.85,3.87-7.42,1.03-2.58,1.8-5.29,2.32-8.12.51-2.81.77-5.76.77-8.85,0-6.14-1.03-11.79-3.09-16.96-1.02-2.56-2.32-5.04-3.87-7.42-1.56-2.38-3.37-4.64-5.43-6.78ZM1540.3,406.87v107.6h-25.89v-107.6h-38.6v-24.07h103.09v24.07h-38.6ZM1747.84,384.09v22.41h-67.91v29.27h60.99v23.53h-60.99v29.63h70.09v24.62h-95.99v-131.67h93.8v2.21ZM1825.16,510.43v-129.46h25.89v106.87h58.07v24.8h-83.97v-2.21ZM1076.59,511.34v-129.46h25.89v55.16h58.76v-55.16h25.9v131.67h-25.9v-52.06h-58.76v52.06h-25.89v-2.21Z"/>
</svg>