<svg width="227" height="46" viewBox="0 0 227 46" fill="none" xmlns="http://www.w3.org/2000/svg">
<path d="M16.0723 10.0272C16.1763 9.57247 16.5808 9.25 17.0472 9.25H28.7456C29.3878 9.25 29.8636 9.84674 29.7205 10.4728L28.1776 17.2228C28.0737 17.6775 27.6692 18 27.2028 18H15.5043C15.4718 18 15.4397 17.9985 15.4081 17.9955L13.9276 24.4728C13.8237 24.9275 13.4192 25.25 12.9528 25.25H1.25433C0.612104 25.25 0.136369 24.6533 0.279473 24.0272L1.82233 17.2772C1.92626 16.8225 2.33075 16.5 2.79719 16.5H14.4956C14.5281 16.5 14.5602 16.5015 14.5918 16.5045L16.0723 10.0272Z" fill="#6F00FE"/>
<path d="M37.6973 30.1522C37.8013 29.6975 38.2057 29.375 38.6722 29.375H50.3706C51.0128 29.375 51.4886 29.9717 51.3455 30.5978L49.8026 37.3478C49.6987 37.8025 49.2942 38.125 48.8278 38.125H37.1293C37.0968 38.125 37.0647 38.1235 37.0331 38.1205L35.5526 44.5978C35.4487 45.0525 35.0442 45.375 34.5778 45.375H22.8793C22.2371 45.375 21.7614 44.7783 21.9045 44.1522L23.4473 37.4022C23.5513 36.9475 23.9558 36.625 24.4222 36.625H36.1206C36.1531 36.625 36.1852 36.6265 36.2168 36.6295L37.6973 30.1522Z" fill="#6F00FE"/>
<path d="M34.7972 16C34.3307 16 33.9263 16.3225 33.8223 16.7772L32.3418 23.2545C32.3102 23.2515 32.2781 23.25 32.2456 23.25H20.5472C20.0808 23.25 19.6763 23.5725 19.5723 24.0272L18.0918 30.5045C18.0602 30.5015 18.0281 30.5 17.9956 30.5H6.29719C5.83075 30.5 5.42626 30.8225 5.32233 31.2772L3.77947 38.0272C3.63637 38.6533 4.1121 39.25 4.75433 39.25H16.4528C16.9192 39.25 17.3237 38.9275 17.4276 38.4728L18.9081 31.9955C18.9397 31.9985 18.9718 32 19.0043 32H30.7028C31.1692 32 31.5737 31.6775 31.6776 31.2228L33.1581 24.7455C33.1897 24.7485 33.2218 24.75 33.2543 24.75H44.9528C45.4192 24.75 45.8237 24.4275 45.9276 23.9728L47.4705 17.2228C47.6136 16.5967 47.1378 16 46.4956 16H34.7972Z" fill="#6F00FE"/>
<path d="M86.7423 12.552C88.7583 12.552 90.5823 12.968 92.2143 13.8C93.8463 14.6 95.1263 15.848 96.0543 17.544C97.0143 19.24 97.4943 21.432 97.4943 24.12V39H88.3743V25.608C88.3743 23.752 87.9903 22.408 87.2223 21.576C86.4863 20.712 85.4463 20.28 84.1023 20.28C83.1423 20.28 82.2623 20.504 81.4623 20.952C80.6623 21.368 80.0383 22.024 79.5903 22.92C79.1423 23.816 78.9183 24.984 78.9183 26.424V39H69.7983V12.984H78.4863L78.5 16.25L76.8063 18.216C77.7983 16.328 79.1583 14.92 80.8863 13.992C82.6143 13.032 84.5663 12.552 86.7423 12.552Z" fill="#251055"/>
<path d="M117.084 39.432C114.236 39.432 111.708 38.856 109.5 37.704C107.292 36.552 105.548 34.968 104.268 32.952C103.02 30.904 102.396 28.568 102.396 25.944C102.396 23.32 103.02 21 104.268 18.984C105.548 16.968 107.292 15.4 109.5 14.28C111.708 13.128 114.236 12.552 117.084 12.552C119.932 12.552 122.46 13.128 124.668 14.28C126.908 15.4 128.652 16.968 129.9 18.984C131.148 21 131.772 23.32 131.772 25.944C131.772 28.568 131.148 30.904 129.9 32.952C128.652 34.968 126.908 36.552 124.668 37.704C122.46 38.856 119.932 39.432 117.084 39.432ZM117.084 32.184C118.14 32.184 119.068 31.944 119.868 31.464C120.7 30.984 121.356 30.28 121.836 29.352C122.316 28.392 122.556 27.256 122.556 25.944C122.556 24.632 122.316 23.528 121.836 22.632C121.356 21.704 120.7 21 119.868 20.52C119.068 20.04 118.14 19.8 117.084 19.8C116.06 19.8 115.132 20.04 114.3 20.52C113.5 21 112.844 21.704 112.332 22.632C111.852 23.528 111.612 24.632 111.612 25.944C111.612 27.256 111.852 28.392 112.332 29.352C112.844 30.28 113.5 30.984 114.3 31.464C115.132 31.944 116.06 32.184 117.084 32.184Z" fill="#251055"/>
<path d="M148.717 39.672C145.965 39.672 143.309 39.336 140.749 38.664C138.221 37.96 136.157 37.064 134.557 35.976L137.677 28.968C139.181 29.928 140.909 30.728 142.861 31.368C144.845 31.976 146.813 32.28 148.765 32.28C150.077 32.28 151.133 32.168 151.933 31.944C152.733 31.688 153.309 31.368 153.661 30.984C154.045 30.568 154.237 30.088 154.237 29.544C154.237 28.776 153.885 28.168 153.181 27.72C152.477 27.272 151.565 26.904 150.445 26.616C149.325 26.328 148.077 26.04 146.701 25.752C145.357 25.464 143.997 25.096 142.621 24.648C141.277 24.2 140.045 23.624 138.925 22.92C137.805 22.184 136.893 21.24 136.189 20.088C135.485 18.904 135.133 17.416 135.133 15.624C135.133 13.608 135.677 11.784 136.765 10.152C137.885 8.51996 139.549 7.20796 141.757 6.21596C143.965 5.22396 146.717 4.72796 150.013 4.72796C152.221 4.72796 154.381 4.98396 156.493 5.49596C158.637 5.97596 160.541 6.69596 162.205 7.65596L159.277 14.712C157.677 13.848 156.093 13.208 154.525 12.792C152.957 12.344 151.437 12.12 149.965 12.12C148.653 12.12 147.597 12.264 146.797 12.552C145.997 12.808 145.421 13.16 145.069 13.608C144.717 14.056 144.541 14.568 144.541 15.144C144.541 15.88 144.877 16.472 145.549 16.92C146.253 17.336 147.165 17.688 148.285 17.976C149.437 18.232 150.685 18.504 152.029 18.792C153.405 19.08 154.765 19.448 156.109 19.896C157.485 20.312 158.733 20.888 159.853 21.624C160.973 22.328 161.869 23.272 162.541 24.456C163.245 25.608 163.597 27.064 163.597 28.824C163.597 30.776 163.037 32.584 161.917 34.248C160.829 35.88 159.181 37.192 156.973 38.184C154.797 39.176 152.045 39.672 148.717 39.672Z" fill="#251055"/>
<path d="M168.035 39V12.984H177.155V39H168.035ZM172.595 10.104C170.931 10.104 169.587 9.63996 168.563 8.71196C167.539 7.78396 167.027 6.63196 167.027 5.25596C167.027 3.87996 167.539 2.72796 168.563 1.79996C169.587 0.871959 170.931 0.407959 172.595 0.407959C174.259 0.407959 175.603 0.855959 176.627 1.75196C177.651 2.61596 178.163 3.73596 178.163 5.11196C178.163 6.55196 177.651 7.75196 176.627 8.71196C175.635 9.63996 174.291 10.104 172.595 10.104Z" fill="#251055"/>
<path d="M183.562 39V3.38396H192.682V39H183.562Z" fill="#251055"/>
<path d="M212.145 39.432C209.297 39.432 206.769 38.856 204.561 37.704C202.353 36.552 200.609 34.968 199.329 32.952C198.081 30.904 197.457 28.568 197.457 25.944C197.457 23.32 198.081 21 199.329 18.984C200.609 16.968 202.353 15.4 204.561 14.28C206.769 13.128 209.297 12.552 212.145 12.552C214.993 12.552 217.521 13.128 219.729 14.28C221.969 15.4 223.713 16.968 224.961 18.984C226.209 21 226.833 23.32 226.833 25.944C226.833 28.568 226.209 30.904 224.961 32.952C223.713 34.968 221.969 36.552 219.729 37.704C217.521 38.856 214.993 39.432 212.145 39.432ZM212.145 32.184C213.201 32.184 214.129 31.944 214.929 31.464C215.761 30.984 216.417 30.28 216.897 29.352C217.377 28.392 217.617 27.256 217.617 25.944C217.617 24.632 217.377 23.528 216.897 22.632C216.417 21.704 215.761 21 214.929 20.52C214.129 20.04 213.201 19.8 212.145 19.8C211.121 19.8 210.193 20.04 209.361 20.52C208.561 21 207.905 21.704 207.393 22.632C206.913 23.528 206.673 24.632 206.673 25.944C206.673 27.256 206.913 28.392 207.393 29.352C207.905 30.28 208.561 30.984 209.361 31.464C210.193 31.944 211.121 32.184 212.145 32.184Z" fill="#251055"/>
</svg>
