<?xml version="1.0" encoding="UTF-8"?>
<svg id="Warstwa_1" data-name="Warstwa 1" xmlns="http://www.w3.org/2000/svg" viewBox="0 0 176.2 59.99">
  <defs>
    <style>
      .cls-1 {
        fill: #010101;
      }

      .cls-2 {
        fill: #1d1d1b;
      }

      .cls-3 {
        isolation: isolate;
      }
    </style>
  </defs>
  <g>
    <g>
      <path class="cls-1" d="M40.53,41.52c-.62,0-1.2.15-1.72.4l-2.67-2.67c-.23-.23-.54-.36-.87-.36h-4.03v2.45h3.52l2.31,2.31c-1.29,2.5.63,5.61,3.45,5.57,5.11-.19,5.11-7.52,0-7.71h0Z"/>
      <path class="cls-1" d="M47.1,32.32c-1.7,0-3.14,1.1-3.65,2.63h-2.41l-2.27-2.27c-.23-.23-.54-.36-.87-.36h-6.66v2.45h6.15l2.27,2.27c.23.23.54.36.87.36h2.92c1.44,4.08,7.42,3.15,7.51-1.23,0-2.13-1.73-3.86-3.86-3.86h0Z"/>
      <path class="cls-1" d="M36.14,22.59l2.67-2.67c2.5,1.29,5.61-.63,5.57-3.45,0-2.13-1.73-3.86-3.86-3.86-2.82-.04-4.74,3.08-3.45,5.57l-2.31,2.31h-3.52v2.45h4.03c.33,0,.64-.13.87-.36h0Z"/>
      <path class="cls-1" d="M38.77,29.16l2.27-2.27h2.41c1.44,4.08,7.42,3.15,7.51-1.23-.09-4.38-6.07-5.31-7.51-1.23h-2.92c-.33,0-.64.13-.87.36l-2.27,2.27h-6.15v2.45h6.66c.33,0,.64-.13.87-.36h0Z"/>
    </g>
    <path class="cls-1" d="M10.03,30.92c0,2.21.97,4.26,2.56,5.66-1.77,4.35,1.2,9.46,5.75,10.16,1.16,2.7,3.86,4.56,6.92,4.56,1.56,0,2.82-1.26,2.82-2.82V13.36c0-1.56-1.26-2.82-2.82-2.82-3.07,0-5.76,1.86-6.92,4.56-4.56.69-7.53,5.8-5.75,10.16-1.6,1.4-2.56,3.45-2.56,5.66h0Z"/>
  </g>
  <g class="cls-3">
    <g class="cls-3">
      <path class="cls-2" d="M60.77,22.96h5.79c1.53,0,2.68.31,3.45.92s1.15,1.61,1.15,2.98c0,.82-.12,1.48-.37,1.96-.25.48-.66.91-1.26,1.29.65.28,1.13.67,1.44,1.19.31.52.47,1.24.47,2.17,0,1.43-.42,2.49-1.26,3.19s-2.02,1.04-3.53,1.04h-5.87v-14.74ZM66.41,25.52h-2.64v3.51h2.67c1.13,0,1.69-.58,1.69-1.75s-.57-1.76-1.71-1.76ZM66.49,31.55h-2.73v3.6h2.73c.65,0,1.13-.13,1.44-.39.31-.26.47-.74.47-1.43,0-1.18-.64-1.78-1.91-1.78Z"/>
      <path class="cls-2" d="M84.17,36.13c-.92,1.22-2.5,1.83-4.73,1.83s-3.82-.61-4.73-1.83c-.92-1.22-1.38-3.13-1.38-5.73s.46-4.53,1.38-5.8c.92-1.26,2.5-1.9,4.73-1.9s3.82.63,4.73,1.9c.92,1.26,1.38,3.2,1.38,5.8s-.46,4.51-1.38,5.73ZM77.04,34.22c.43.76,1.22,1.14,2.39,1.14s1.97-.38,2.39-1.14c.43-.76.64-2.03.64-3.81s-.22-3.08-.65-3.89c-.43-.81-1.23-1.21-2.38-1.21s-1.95.41-2.38,1.21c-.43.81-.65,2.11-.65,3.89s.21,3.06.64,3.81Z"/>
    </g>
    <g class="cls-3">
      <path class="cls-2" d="M98.3,36.13c-.92,1.22-2.5,1.83-4.73,1.83s-3.82-.61-4.73-1.83c-.92-1.22-1.38-3.13-1.38-5.73s.46-4.53,1.38-5.8c.92-1.26,2.5-1.9,4.73-1.9s3.82.63,4.73,1.9c.92,1.26,1.38,3.2,1.38,5.8s-.46,4.51-1.38,5.73ZM91.17,34.22c.43.76,1.22,1.14,2.39,1.14s1.97-.38,2.39-1.14c.43-.76.64-2.03.64-3.81s-.22-3.08-.65-3.89c-.43-.81-1.23-1.21-2.38-1.21s-1.95.41-2.38,1.21c-.43.81-.65,2.11-.65,3.89s.21,3.06.64,3.81Z"/>
    </g>
    <g class="cls-3">
      <path class="cls-2" d="M100.76,25.61v-2.64h10.83v2.64h-3.9v12.09h-2.99v-12.09h-3.94Z"/>
      <path class="cls-2" d="M122.82,37.46c-1.53.33-2.91.5-4.14.5s-2.21-.15-2.95-.46c-.74-.3-1.32-.79-1.73-1.45-.42-.67-.71-1.45-.87-2.34-.16-.9-.24-2.02-.24-3.38,0-2.85.4-4.83,1.2-5.95.8-1.12,2.28-1.68,4.43-1.68,1.24,0,2.68.2,4.31.59l-.09,2.38c-1.43-.22-2.62-.33-3.56-.33s-1.62.13-2.03.38c-.41.25-.71.73-.9,1.44-.19.71-.29,1.91-.29,3.62s.2,2.89.6,3.54c.4.66,1.19.99,2.38.99s2.46-.1,3.8-.3l.07,2.45Z"/>
      <path class="cls-2" d="M124.01,37.7l3.32-14.74h5.68l3.32,14.74h-2.99l-.59-2.67h-5.16l-.58,2.67h-2.99ZM129.65,25.43l-1.5,7h4.03l-1.5-7h-1.04Z"/>
      <path class="cls-2" d="M138.29,37.7v-14.74h5.09l2.6,10.75,2.6-10.75h5.09v14.74h-2.99v-11.4h-.33l-2.88,10.75h-2.99l-2.88-10.75h-.33v11.4h-2.99Z"/>
      <path class="cls-2" d="M162.3,33.41h-2.43v4.29h-2.99v-14.74h5.42c3.5,0,5.24,1.7,5.24,5.11,0,1.72-.44,3.04-1.33,3.95-.89.92-2.19,1.38-3.91,1.38ZM159.88,30.85h2.41c1.49,0,2.23-.92,2.23-2.77,0-.91-.18-1.56-.54-1.96-.36-.4-.92-.6-1.69-.6h-2.41v5.33Z"/>
    </g>
  </g>
</svg>